<svg width="198" height="184" viewBox="0 0 198 184" fill="none" xmlns="http://www.w3.org/2000/svg">
<path d="M171.321 0C185.933 0 197.78 11.846 197.78 26.458V112.434C197.78 127.046 185.933 138.892 171.321 138.892H120.627L103.223 179.89C103.223 179.89 102.024 183.446 99.124 183.446C96.2227 183.446 95.0254 179.89 95.0254 179.89L77.623 138.892H26.457C11.8452 138.891 0 127.045 0 112.434V26.458C0 11.8461 11.8452 0.000158576 26.457 0H171.321ZM162.136 60.5C158.321 55.3589 152.114 55.9937 152.054 56C136.251 57.1644 135.888 71.6952 135.887 71.751V77.084C135.887 91.1139 150.231 92.1832 150.304 92.1885C160.469 92.1885 161.887 87.667 161.887 87.667C161.969 98.8337 154.72 98.167 154.72 98.167H151.554V109.167H156.803C174.048 109.167 173.887 92.1995 173.887 92.1885V56.918H162.136V60.5ZM110.428 56.4395C99.704 56.4396 91.0119 64.4404 91.0117 74.3135C91.0117 84.1854 99.7038 92.1884 110.428 92.1885C121.152 92.1885 129.846 84.1855 129.846 74.3135C129.846 64.4403 121.152 56.4395 110.428 56.4395ZM35.9707 42C35.9707 42 24.8741 42.1469 24.1377 42.0283V90.834H35.9707V88C35.9707 88 39.5212 92.1669 45.8037 92.167C45.8037 92.167 62.0537 91.716 62.1377 76C62.1508 75.8887 64.2743 57.6284 46.8037 56C46.7486 55.9995 38.7452 55.9381 35.9707 60.667V42ZM65.8037 52.085C65.8037 52.085 71.3867 53.334 71.3867 57.834V90.918H82.9707V57.5C82.9788 57.3987 84.246 41.165 65.8037 40.418V52.085ZM110.427 66.9805C114.476 66.9805 117.761 70.2629 117.761 74.3135C117.761 78.3641 114.476 81.6475 110.427 81.6475C106.378 81.6473 103.094 78.364 103.094 74.3135C103.094 70.263 106.378 66.9806 110.427 66.9805ZM155.47 67.1465C159.428 67.1467 162.636 70.355 162.636 74.3135C162.636 78.272 159.428 81.4803 155.47 81.4805C151.511 81.4805 148.303 78.2721 148.303 74.3135C148.303 70.3548 151.511 67.1465 155.47 67.1465ZM43.1592 67.6904C46.9203 67.6906 49.9695 70.7399 49.9697 74.501C49.9697 78.2622 46.9204 81.3124 43.1592 81.3125C39.3978 81.3125 36.3496 78.2623 36.3496 74.501C36.3498 70.7398 39.398 67.6904 43.1592 67.6904Z" fill="#5DB534"/>
</svg>
